<svg width="264" height="59" viewBox="0 0 264 59" version="1.1" xmlns="http://www.w3.org/2000/svg" xmlns:xlink="http://www.w3.org/1999/xlink">
<title>Group</title>
<desc>Created using Figma</desc>
<g id="Canvas" transform="translate(581 403)">
<g id="Group">
<g id="Box">
<use xlink:href="#path0_fill" transform="translate(-388 -423)" fill="#F2994A"/>
</g>
<g id="Harvest">
<use xlink:href="#path1_fill" transform="translate(-585 -404)" fill="#F2994A"/>
</g>
</g>
</g>
<defs>
<path id="path0_fill" d="M 15.1335 46.7812C 17.2195 46.895 19.1918 47.5967 21.0503 48.8862C 22.9088 50.1379 24.407 51.7119 25.5448 53.6083C 26.6827 55.4668 27.2516 57.3253 27.2516 59.1838C 27.2516 64.4938 25.2225 68.5332 21.1641 71.302C 17.1058 74.0708 11.4544 75.4551 4.21006 75.4551L 3.01532 75.3982C 2.90153 75.9292 2.84464 76.3844 2.84464 76.7637C 2.73085 77.2188 2.52225 77.5981 2.21882 77.9015C 1.91539 78.2429 1.593 78.4136 1.25164 78.4136C 0.606856 78.4136 0.246535 78.0343 0.170678 77.2757C 0.246535 76.5171 0.379285 75.7586 0.568928 75L -1.08096 74.6586C -2.56017 74.3931 -3.52735 74.0897 -3.98249 73.7484C -4.43763 73.3691 -4.66521 72.9139 -4.66521 72.3829C -4.66521 72.1554 -4.55142 71.9278 -4.32385 71.7002C -4.09628 71.4347 -3.88767 71.302 -3.69803 71.302C -3.58424 71.302 -3.18599 71.4158 -2.50328 71.6433C -1.78264 71.8709 -1.15682 72.0605 -0.62582 72.2123C -0.13275 72.326 0.455142 72.3829 1.13786 72.3829L 6.65645 48.3742L 4.94967 48.3173C 4.38074 48.3173 4.09628 47.9949 4.09628 47.3501C 4.09628 46.4398 5.12035 45.9847 7.16849 45.9847C 7.81327 43.3297 8.45806 40.0299 9.10284 36.0854C 9.52005 33.3924 9.9183 31.0978 10.2976 29.2013C 10.7148 27.3049 11.2458 25.3706 11.8906 23.3983C 11.5492 23.55 10.9803 23.9482 10.1838 24.593C 9.9183 24.8585 9.63384 25.1051 9.33041 25.3326C 9.02698 25.5223 8.76148 25.6171 8.53391 25.6171C 8.30634 25.6171 8.07877 25.5223 7.8512 25.3326C 7.66156 25.143 7.56674 24.8585 7.56674 24.4792C 7.56674 23.6448 8.09774 22.8862 9.15973 22.2035C 10.2217 21.5208 11.5113 21.0277 13.0284 20.7243C 13.256 20.345 13.5405 20.1554 13.8818 20.1554C 14.1853 20.1554 14.4887 20.3071 14.7921 20.6105C 18.3195 20.7243 21.1451 21.938 23.2691 24.2517C 25.3931 26.5653 26.4551 29.6375 26.4551 33.4683C 26.4551 35.5164 25.9052 37.5266 24.8052 39.4989C 23.7432 41.4333 22.3399 43.0642 20.5952 44.3917C 18.8505 45.7192 17.0299 46.5157 15.1335 46.7812ZM 14.2232 23.0569C 13.5784 25.2188 13.0664 27.2859 12.6871 29.2582C 12.3078 31.2305 11.8906 33.62 11.4354 36.4267C 11.3217 36.9956 11.0941 38.2662 10.7527 40.2385C 10.4493 42.1729 10.089 44.0693 9.67177 45.9278C 12.213 45.9278 14.5456 45.3778 16.6696 44.2779C 18.8315 43.1401 20.5383 41.6229 21.7899 39.7265C 23.0416 37.8301 23.6674 35.763 23.6674 33.5252C 23.6674 30.1875 22.814 27.6273 21.1072 25.8447C 19.4004 24.062 17.1058 23.1328 14.2232 23.0569ZM 5.74617 72.895C 9.72866 72.895 13.1233 72.364 15.93 71.302C 18.7746 70.202 20.9365 68.647 22.4157 66.6368C 23.895 64.6266 24.6346 62.256 24.6346 59.5252C 24.6346 57.6667 24.0277 55.903 22.814 54.2341C 21.6382 52.5274 20.0831 51.1619 18.1488 50.1379C 16.2144 49.1138 14.2042 48.6018 12.1182 48.6018C 10.9044 48.6018 9.89934 48.5638 9.10284 48.488C 8.49598 51.143 7.56674 55.2203 6.3151 60.7199C 5.06346 66.1816 4.13421 70.202 3.52735 72.7812C 4.21006 72.857 4.94967 72.895 5.74617 72.895ZM 36.7909 75.512C 34.8187 75.512 33.3394 74.7345 32.3533 73.1794C 31.4051 71.6244 30.931 69.7659 30.931 67.6039C 30.931 64.1524 31.4999 60.8147 32.6378 57.5908C 33.8136 54.329 35.4066 51.636 37.4168 49.512C 39.3511 47.3501 41.532 46.2692 43.9594 46.2692C 47.4489 46.2692 49.1936 48.9242 49.1936 54.2341C 49.1936 56.8891 48.7574 59.601 47.885 62.3698C 47.0127 65.1386 45.8748 67.6039 44.4715 69.7659C 43.106 71.9278 41.6837 73.4829 40.2045 74.4311C 39.0667 75.1517 37.9288 75.512 36.7909 75.512ZM 37.2461 72.9519C 38.4219 72.9519 39.7304 71.9278 41.1717 69.8797C 42.6509 67.8315 43.8836 65.2903 44.8697 62.256C 45.8938 59.2217 46.4058 56.6426 46.4058 54.5186C 46.4058 52.3188 46.2731 50.9533 46.0076 50.4223C 45.78 49.8534 45.4955 49.4552 45.1542 49.2276C 44.8128 49 44.2818 48.8862 43.5612 48.8862C 42.7647 48.8862 41.9303 49.1897 41.0579 49.7965C 39.3132 50.8964 37.796 52.7929 36.5065 55.4858C 34.4963 59.5062 33.4912 63.4128 33.4912 67.2057C 33.4912 69.7848 34.2308 71.5675 35.71 72.5536C 36.241 72.8191 36.753 72.9519 37.2461 72.9519ZM 65.4 75.4551C 64.9828 75.4551 64.6794 75.1517 64.4897 74.5449C 64.4518 74.0518 64.2621 73.4449 63.9208 72.7243C 63.6174 72.2691 63.276 71.5106 62.8967 70.4486C 62.745 69.8797 62.2899 68.7039 61.5313 66.9212C 60.5451 64.5697 59.9573 63.1284 59.7676 62.5974L 51.9733 74.5449C 51.632 75.1138 51.101 75.3982 50.3803 75.3982C 49.6597 75.3982 49.2993 75.0948 49.2993 74.488C 49.2993 74.1466 49.47 73.6915 49.8114 73.1225L 51.4044 70.6193L 53.2249 67.7177C 55.4627 64.1904 57.2074 61.4975 58.4591 59.639L 58.1177 58.7856C 57.7384 57.6856 57.5109 57.0219 57.435 56.7943C 56.9419 55.3151 56.5247 54.1204 56.1834 53.2101L 55.7282 51.8446C 55.4627 51.0861 55.311 50.6309 55.2731 50.4792L 54.7611 49C 54.7231 48.8104 54.6662 48.6207 54.5904 48.4311C 54.5145 48.2035 54.4576 47.9949 54.4197 47.8053C 54.268 47.5018 54.1921 47.1984 54.1921 46.895C 54.1921 46.6674 54.3438 46.4209 54.6473 46.1554C 54.9507 45.8519 55.311 45.7002 55.7282 45.7002C 56.4489 45.7002 57.0178 46.3071 57.435 47.5208C 57.6626 48.2035 57.8143 48.7155 57.8902 49.0569C 58.0419 49.9672 58.3263 50.9533 58.7435 52.0153C 59.1987 53.3808 59.578 54.4048 59.8814 55.0875C 59.9952 55.4668 60.2038 56.0357 60.5072 56.7943C 61.4175 55.6944 62.5743 54.1204 63.9777 52.0722L 65.4 50.0241C 66.3482 48.6966 66.8602 47.9949 66.9361 47.919C 67.505 47.2743 68.036 46.8191 68.5291 46.5536C 68.8325 46.4398 69.098 46.3829 69.3256 46.3829C 69.9325 46.4967 70.2359 46.8002 70.2359 47.2932C 70.2359 47.7484 70.1411 48.1656 69.9514 48.5449C 69.7238 49 69.2308 49.7017 68.4722 50.6499C 68.1688 50.9913 67.3344 52.0912 65.9689 53.9497C 65.9689 53.9497 65.7414 54.291 65.2862 54.9738C 64.0725 56.7943 62.8967 58.4063 61.7589 59.8096C 63.9587 65.1576 65.1724 68.2298 65.4 69.0263C 65.7414 70.1262 66.1206 71.0554 66.5379 71.814C 66.9551 72.5346 67.1637 73.2743 67.1637 74.0328C 67.0878 74.45 66.8792 74.7914 66.5379 75.0569C 66.2344 75.3224 65.8551 75.4551 65.4 75.4551Z"/>
<path id="path1_fill" d="M 6.11153 57C 5.18554 57 4.72254 56.4907 4.72254 55.4721L 4.72254 18.6918C 4.72254 17.6733 5.18554 17.164 6.11153 17.164L 8.66726 17.164C 9.59324 17.164 10.0562 17.6733 10.0562 18.6918L 10.0562 33.9984L 29.4464 33.9984L 29.4464 18.6918C 29.4464 17.6733 29.9094 17.164 30.8354 17.164L 33.3912 17.164C 34.3171 17.164 34.7801 17.6733 34.7801 18.6918L 34.7801 55.4721C 34.7801 56.4907 34.3171 57 33.3912 57L 30.8354 57C 29.9094 57 29.4464 56.4907 29.4464 55.4721L 29.4464 38.5543L 10.0562 38.5543L 10.0562 55.4721C 10.0562 56.4907 9.59324 57 8.66726 57L 6.11153 57ZM 41.864 49.2217C 41.864 45.9252 43.4011 43.5083 46.4754 41.9712C 49.5682 40.4341 54.1796 39.5359 60.3097 39.2766L 60.3097 37.3876C 60.3097 35.6467 59.9115 34.1466 59.1151 32.8873C 58.3373 31.6094 56.7816 30.9705 54.4481 30.9705C 52.9666 30.9705 51.7813 31.1186 50.8923 31.4149C 50.0034 31.6927 49.1885 32.0724 48.4477 32.5539C 47.7255 33.0169 47.031 33.6188 46.3643 34.3596C 45.8642 34.9152 45.392 34.9429 44.9475 34.4429L 43.503 32.7761C 43.0955 32.3131 43.2344 31.7575 43.9196 31.1094C 44.9012 30.1834 45.855 29.4889 46.781 29.0259C 47.7069 28.5629 48.8552 28.174 50.2256 27.8591C 51.6146 27.5258 53.0221 27.3591 54.4481 27.3591C 58.3188 27.3591 61.0782 28.3592 62.7265 30.3593C 64.3747 32.3409 65.1989 35.0633 65.1989 38.5265L 65.1989 55.7499C 65.1989 56.5833 64.7822 57 63.9488 57L 61.4486 57C 60.7263 57 60.3652 56.5833 60.3652 55.7499L 60.3652 54.3887L 60.3097 54.3887C 58.8466 55.5369 57.4113 56.3425 56.0038 56.8055C 54.6148 57.25 53.0592 57.4723 51.3368 57.4723C 48.2996 57.4723 45.9568 56.75 44.3086 55.3054C 42.6788 53.8424 41.864 51.8145 41.864 49.2217ZM 46.9199 49.3328C 46.9199 50.481 47.1606 51.407 47.6421 52.1108C 48.1236 52.796 48.7903 53.2405 49.6423 53.4442C 50.4942 53.6294 51.3831 53.722 52.3091 53.722C 53.7351 53.722 55.0871 53.5831 56.3649 53.3053C 57.6428 53.0275 58.9577 52.296 60.3097 51.1107L 60.3097 42.9157C 56.5687 43.1935 53.9018 43.5361 52.3091 43.9436C 50.7164 44.3325 49.42 45.0177 48.42 45.9993C 47.4199 46.9623 46.9199 48.0735 46.9199 49.3328ZM 74.3662 57C 73.5328 57 73.1161 56.5833 73.1161 55.7499L 73.1161 29.0814C 73.1161 28.248 73.5328 27.8314 74.3662 27.8314L 76.6997 27.8314C 77.533 27.8314 77.9497 28.248 77.9497 29.0814L 77.9497 32.415L 78.0609 32.415C 78.9498 30.7482 79.9962 29.4889 81.2 28.637C 82.4037 27.7851 83.9038 27.3591 85.7003 27.3591C 86.8855 27.3591 87.7189 27.461 88.2004 27.6647C 88.6264 27.8314 88.7838 28.1091 88.6727 28.4981L 88.0338 30.776C 87.9412 31.1094 87.7004 31.239 87.3115 31.1649C 86.6633 31.0353 86.0521 30.9705 85.478 30.9705C 83.3112 30.9705 81.5241 31.952 80.1166 33.9151C 78.709 35.8597 78.0053 38.5173 78.0053 41.8879L 78.0053 55.7499C 78.0053 56.5833 77.5886 57 76.7552 57L 74.3662 57ZM 90.9506 29.1926C 90.6358 28.2851 90.8858 27.8314 91.7007 27.8314L 94.7287 27.8314C 95.3213 27.8314 95.738 28.1925 95.9787 28.9148L 101.868 47.2493C 102.35 48.7494 102.674 49.7865 102.84 50.3607C 103.026 50.9163 103.192 51.6107 103.34 52.4441L 103.451 52.4441C 103.6 51.6107 103.757 50.9163 103.924 50.3607C 104.109 49.7865 104.442 48.7494 104.924 47.2493L 110.813 28.9148C 111.054 28.1925 111.471 27.8314 112.063 27.8314L 115.091 27.8314C 115.906 27.8314 116.156 28.2851 115.841 29.1926L 106.729 55.3054C 106.341 56.4351 105.841 57 105.229 57L 101.562 57C 100.951 57 100.451 56.4351 100.062 55.3054L 90.9506 29.1926ZM 118.98 42.4157C 118.98 37.8228 120.129 34.1651 122.425 31.4427C 124.721 28.7203 128.009 27.3591 132.287 27.3591C 135.843 27.3591 138.787 28.6092 141.121 31.1094C 143.473 33.591 144.649 37.5635 144.649 43.0268C 144.649 43.8602 144.269 44.2769 143.51 44.2769L 124.147 44.2769C 124.462 47.8512 125.425 50.3421 127.036 51.7496C 128.648 53.1386 130.472 53.8331 132.509 53.8331C 134.657 53.8331 136.306 53.472 137.454 52.7497C 138.602 52.0274 139.445 51.3144 139.982 50.6107C 140.574 49.8328 141.148 49.6847 141.704 50.1662L 143.343 51.583C 143.769 51.9534 143.769 52.4627 143.343 53.1108C 142.991 53.6479 141.982 54.5091 140.315 55.6944C 138.667 56.8796 136.065 57.4723 132.509 57.4723C 127.879 57.4723 124.462 56.1111 122.258 53.3886C 120.073 50.6662 118.98 47.0086 118.98 42.4157ZM 124.036 40.6656L 139.732 40.6656C 139.658 38.0728 138.991 35.8041 137.732 33.8595C 136.472 31.8964 134.62 30.9149 132.176 30.9149C 130.027 30.9149 128.203 31.6372 126.703 33.0817C 125.203 34.5077 124.314 37.0357 124.036 40.6656ZM 149.927 54.2776C 149.353 53.7405 149.232 53.2405 149.566 52.7775L 150.816 51.0274C 151.223 50.4718 151.825 50.4996 152.621 51.1107C 153.714 51.9441 154.927 52.6108 156.261 53.1108C 157.613 53.6109 159.15 53.8609 160.872 53.8609C 161.891 53.8609 162.798 53.7405 163.594 53.4998C 164.391 53.2405 165.085 52.7682 165.678 52.083C 166.289 51.3978 166.595 50.481 166.595 49.3328C 166.595 48.6661 166.446 48.0364 166.15 47.4438C 165.872 46.8512 165.428 46.3789 164.817 46.027C 164.224 45.6566 163.641 45.3696 163.067 45.1659C 162.122 44.814 161.178 44.5269 160.233 44.3047C 159.307 44.0639 158.085 43.7028 156.566 43.2213C 155.548 42.9065 154.585 42.462 153.677 41.8879C 152.77 41.2952 151.973 40.4989 151.288 39.4988C 150.621 38.4987 150.288 37.119 150.288 35.3596C 150.288 33.5632 150.834 32.0168 151.927 30.7204C 153.02 29.4241 154.39 28.5444 156.038 28.0814C 157.687 27.5999 159.289 27.3591 160.844 27.3591C 163.141 27.3591 164.983 27.6276 166.372 28.1647C 167.78 28.6833 168.993 29.3037 170.012 30.0259C 170.604 30.4519 170.688 30.9427 170.262 31.4983L 169.011 33.165C 168.623 33.7021 168.021 33.6836 167.206 33.1095C 166.521 32.628 165.548 32.1742 164.289 31.7483C 163.03 31.3223 161.928 31.1094 160.983 31.1094C 159.816 31.1094 158.816 31.239 157.983 31.4983C 157.15 31.7575 156.474 32.202 155.955 32.8317C 155.436 33.4614 155.177 34.2022 155.177 35.0541C 155.177 35.7023 155.279 36.2856 155.483 36.8042C 155.686 37.3042 156.066 37.7672 156.622 38.1932C 157.177 38.6191 157.955 38.9617 158.955 39.221C 160.511 39.6284 161.928 39.9988 163.206 40.3322C 164.502 40.6656 165.669 41.073 166.706 41.5545C 168.058 42.1842 169.095 42.8787 169.817 43.638C 170.558 44.3973 171.067 45.2214 171.345 46.1104C 171.623 46.9808 171.762 47.9531 171.762 49.0272C 171.762 51.0089 171.169 52.6849 169.984 54.0554C 168.817 55.4258 167.511 56.3425 166.067 56.8055C 164.622 57.25 162.881 57.4723 160.844 57.4723C 158.085 57.4723 155.714 57.0833 153.733 56.3055C 151.77 55.5092 150.501 54.8332 149.927 54.2776ZM 175.873 31.4983C 175.04 31.4983 174.623 31.1742 174.623 30.526L 174.623 28.8036C 174.623 28.1554 175.04 27.8314 175.873 27.8314L 179.151 27.8314L 179.151 25.3312C 179.151 24.9608 179.244 24.6089 179.429 24.2756L 181.373 20.7475C 181.725 20.0993 182.012 19.7752 182.235 19.7752L 183.207 19.7752C 183.762 19.7752 184.04 20.0993 184.04 20.7475L 184.04 27.8314L 189.957 27.8314C 190.791 27.8314 191.207 28.1554 191.207 28.8036L 191.207 30.526C 191.207 31.1742 190.791 31.4983 189.957 31.4983L 184.04 31.4983L 184.04 49.1939C 184.04 51.1385 184.327 52.4071 184.901 52.9997C 185.494 53.5738 186.198 53.8609 187.013 53.8609C 187.642 53.8609 188.392 53.6757 189.263 53.3053C 190.152 52.9349 190.763 52.6201 191.096 52.3608C 191.43 52.1015 191.689 52.1849 191.874 52.6108L 192.791 54.7498C 192.939 55.1202 192.828 55.4166 192.458 55.6388C 191.735 56.0648 190.68 56.4814 189.291 56.8889C 187.902 57.2778 186.513 57.4723 185.124 57.4723C 183.198 57.4723 181.716 56.7778 180.679 55.3888C 179.66 53.9998 179.151 52.0367 179.151 49.4995L 179.151 31.4983L 175.873 31.4983Z"/>
</defs>
</svg>
