<svg width="312" height="71" viewBox="0 0 312 71" version="1.1" xmlns="http://www.w3.org/2000/svg" xmlns:xlink="http://www.w3.org/1999/xlink">
<title>Group</title>
<desc>Created using Figma</desc>
<g id="Canvas" transform="translate(-4884 -1212)">
<g id="Group">
<g id="Box">
<use xlink:href="#path0_fill" transform="translate(5112.48 1189)" fill="#F2F2F2"/>
</g>
<g id="Harvest">
<use xlink:href="#path1_fill" transform="translate(4878.64 1211.53)" fill="#F2F2F2"/>
</g>
</g>
</g>
<defs>
<path id="path0_fill" d="M 17.9548 55.5203C 20.4298 55.6553 22.7698 56.4878 24.9748 58.0178C 27.1797 59.5028 28.9572 61.3703 30.3072 63.6202C 31.6572 65.8252 32.3322 68.0302 32.3322 70.2352C 32.3322 76.5351 29.9247 81.3276 25.1098 84.6125C 20.2948 87.8975 13.5899 89.54 4.99495 89.54L 3.57747 89.4725C 3.44247 90.1025 3.37497 90.6425 3.37497 91.0925C 3.23997 91.6325 2.99247 92.0825 2.63248 92.4425C 2.27248 92.8475 1.88998 93.05 1.48499 93.05C 0.719993 93.05 0.292497 92.6 0.202498 91.7C 0.292497 90.8 0.449996 89.9 0.674994 89L -1.28249 88.595C -3.03747 88.28 -4.18496 87.92 -4.72496 87.515C -5.26495 87.065 -5.53495 86.525 -5.53495 85.895C -5.53495 85.625 -5.39995 85.355 -5.12995 85.085C -4.85995 84.77 -4.61246 84.6125 -4.38746 84.6125C -4.25246 84.6125 -3.77996 84.7475 -2.96997 85.0175C -2.11498 85.2875 -1.37249 85.5125 -0.742493 85.6925C -0.157499 85.8275 0.539995 85.895 1.34999 85.895L 7.89743 57.4103L 5.87244 57.3428C 5.19745 57.3428 4.85995 56.9603 4.85995 56.1953C 4.85995 55.1153 6.07494 54.5753 8.50492 54.5753C 9.26991 51.4254 10.0349 47.5104 10.7999 42.8304C 11.2949 39.6355 11.7674 36.913 12.2174 34.663C 12.7124 32.413 13.3424 30.1181 14.1074 27.7781C 13.7024 27.9581 13.0274 28.4306 12.0824 29.1956C 11.7674 29.5106 11.4299 29.8031 11.0699 30.0731C 10.7099 30.298 10.3949 30.4106 10.1249 30.4106C 9.85491 30.4106 9.58491 30.298 9.31491 30.0731C 9.08991 29.8481 8.97742 29.5106 8.97742 29.0606C 8.97742 28.0706 9.60741 27.1706 10.8674 26.3606C 12.1274 25.5506 13.6574 24.9656 15.4574 24.6056C 15.7274 24.1556 16.0648 23.9306 16.4698 23.9306C 16.8298 23.9306 17.1898 24.1106 17.5498 24.4706C 21.7348 24.6056 25.0873 26.0456 27.6072 28.7906C 30.1272 31.5355 31.3872 35.1805 31.3872 39.7255C 31.3872 42.1554 30.7347 44.5404 29.4297 46.8804C 28.1697 49.1754 26.5048 51.1104 24.4348 52.6853C 22.3648 54.2603 20.2048 55.2053 17.9548 55.5203ZM 16.8748 27.3731C 16.1098 29.9381 15.5024 32.3905 15.0524 34.7305C 14.6024 37.0705 14.1074 39.9055 13.5674 43.2354C 13.4324 43.9104 13.1624 45.4179 12.7574 47.7579C 12.3974 50.0529 11.9699 52.3028 11.4749 54.5078C 14.4899 54.5078 17.2573 53.8553 19.7773 52.5503C 22.3423 51.2004 24.3673 49.4004 25.8523 47.1504C 27.3372 44.9004 28.0797 42.4479 28.0797 39.793C 28.0797 35.833 27.0672 32.7955 25.0423 30.6805C 23.0173 28.5656 20.2948 27.4631 16.8748 27.3731ZM 6.81744 86.5025C 11.5424 86.5025 15.5699 85.8725 18.8998 84.6125C 22.2748 83.3076 24.8398 81.4626 26.5948 79.0776C 28.3497 76.6926 29.2272 73.8801 29.2272 70.6402C 29.2272 68.4352 28.5072 66.3427 27.0672 64.3627C 25.6723 62.3377 23.8273 60.7178 21.5323 59.5028C 19.2373 58.2878 16.8523 57.6803 14.3774 57.6803C 12.9374 57.6803 11.7449 57.6353 10.7999 57.5453C 10.0799 60.6953 8.97742 65.5327 7.49243 72.0577C 6.00744 78.5376 4.90495 83.3076 4.18496 86.3675C 4.99495 86.4575 5.87244 86.5025 6.81744 86.5025ZM 43.6499 89.6075C 41.31 89.6075 39.555 88.685 38.385 86.84C 37.26 84.995 36.6975 82.7901 36.6975 80.2251C 36.6975 76.1301 37.3725 72.1702 38.7225 68.3452C 40.1175 64.4752 42.0075 61.2803 44.3924 58.7603C 46.6874 56.1953 49.2749 54.9128 52.1549 54.9128C 56.2948 54.9128 58.3648 58.0628 58.3648 64.3627C 58.3648 67.5127 57.8473 70.7302 56.8123 74.0151C 55.7773 77.3001 54.4273 80.2251 52.7624 82.7901C 51.1424 85.355 49.4549 87.2 47.6999 88.325C 46.3499 89.18 44.9999 89.6075 43.6499 89.6075ZM 44.1899 86.57C 45.5849 86.57 47.1374 85.355 48.8474 82.9251C 50.6024 80.4951 52.0649 77.4801 53.2349 73.8801C 54.4498 70.2802 55.0573 67.2202 55.0573 64.7002C 55.0573 62.0903 54.8998 60.4703 54.5848 59.8403C 54.3148 59.1653 53.9773 58.6928 53.5724 58.4228C 53.1674 58.1528 52.5374 58.0178 51.6824 58.0178C 50.7374 58.0178 49.7474 58.3778 48.7124 59.0978C 46.6424 60.4028 44.8424 62.6527 43.3124 65.8477C 40.9275 70.6177 39.735 75.2526 39.735 79.7526C 39.735 82.8126 40.6125 84.9275 42.3675 86.0975C 42.9974 86.4125 43.6049 86.57 44.1899 86.57ZM 77.5926 89.54C 77.0976 89.54 76.7376 89.18 76.5126 88.46C 76.4676 87.875 76.2426 87.155 75.8376 86.3C 75.4777 85.76 75.0727 84.86 74.6227 83.6001C 74.4427 82.9251 73.9027 81.5301 73.0027 79.4151C 71.8327 76.6251 71.1352 74.9151 70.9102 74.2851L 61.6628 88.46C 61.2578 89.135 60.6278 89.4725 59.7728 89.4725C 58.9178 89.4725 58.4903 89.1125 58.4903 88.3925C 58.4903 87.9875 58.6928 87.4475 59.0978 86.7725L 60.9878 83.8025L 63.1478 80.3601C 65.8027 76.1751 67.8727 72.9802 69.3577 70.7752L 68.9527 69.7627C 68.5027 68.4577 68.2327 67.6702 68.1427 67.4002C 67.5577 65.6452 67.0627 64.2277 66.6577 63.1477L 66.1177 61.5278C 65.8027 60.6278 65.6227 60.0878 65.5777 59.9078L 64.9703 58.1528C 64.9253 57.9278 64.8578 57.7028 64.7678 57.4778C 64.6778 57.2078 64.6103 56.9603 64.5653 56.7353C 64.3853 56.3753 64.2953 56.0153 64.2953 55.6553C 64.2953 55.3853 64.4753 55.0928 64.8353 54.7778C 65.1952 54.4178 65.6227 54.2378 66.1177 54.2378C 66.9727 54.2378 67.6477 54.9578 68.1427 56.3978C 68.4127 57.2078 68.5927 57.8153 68.6827 58.2203C 68.8627 59.3003 69.2002 60.4703 69.6952 61.7303C 70.2352 63.3502 70.6852 64.5652 71.0452 65.3752C 71.1802 65.8252 71.4277 66.5002 71.7877 67.4002C 72.8677 66.0952 74.2402 64.2277 75.9051 61.7978L 77.5926 59.3678C 78.7176 57.7928 79.3251 56.9603 79.4151 56.8703C 80.0901 56.1053 80.7201 55.5653 81.3051 55.2503C 81.6651 55.1153 81.9801 55.0478 82.2501 55.0478C 82.9701 55.1828 83.3301 55.5428 83.3301 56.1278C 83.3301 56.6678 83.2176 57.1628 82.9926 57.6128C 82.7226 58.1528 82.1376 58.9853 81.2376 60.1103C 80.8776 60.5153 79.8876 61.8203 78.2676 64.0252C 78.2676 64.0252 77.9976 64.4302 77.4576 65.2402C 76.0176 67.4002 74.6227 69.3127 73.2727 70.9777C 75.8826 77.3226 77.3226 80.9676 77.5926 81.9126C 77.9976 83.2176 78.4476 84.32 78.9426 85.22C 79.4376 86.075 79.6851 86.9525 79.6851 87.8525C 79.5951 88.3475 79.3476 88.7525 78.9426 89.0675C 78.5826 89.3825 78.1326 89.54 77.5926 89.54Z"/>
<path id="path1_fill" d="M 7.25091 68C 6.15229 68 5.60297 67.3958 5.60297 66.1873L 5.60297 22.55C 5.60297 21.3415 6.15229 20.7373 7.25091 20.7373L 10.2831 20.7373C 11.3817 20.7373 11.931 21.3415 11.931 22.55L 11.931 40.7102L 34.9362 40.7102L 34.9362 22.55C 34.9362 21.3415 35.4855 20.7373 36.5841 20.7373L 39.6163 20.7373C 40.715 20.7373 41.2643 21.3415 41.2643 22.55L 41.2643 66.1873C 41.2643 67.3958 40.715 68 39.6163 68L 36.5841 68C 35.4855 68 34.9362 67.3958 34.9362 66.1873L 34.9362 46.1154L 11.931 46.1154L 11.931 66.1873C 11.931 67.3958 11.3817 68 10.2831 68L 7.25091 68ZM 49.6687 58.7716C 49.6687 54.8605 51.4924 51.9931 55.1399 50.1694C 58.8093 48.3456 64.2804 47.28 71.5533 46.9724L 71.5533 44.7312C 71.5533 42.6658 71.0809 40.886 70.1361 39.3919C 69.2132 37.8758 67.3675 37.1177 64.599 37.1177C 62.8412 37.1177 61.435 37.2935 60.3803 37.6451C 59.3256 37.9746 58.3588 38.4251 57.4799 38.9964C 56.623 39.5457 55.799 40.2598 55.008 41.1387C 54.4148 41.7979 53.8545 41.8308 53.3271 41.2376L 51.6133 39.26C 51.1299 38.7107 51.2947 38.0516 52.1077 37.2825C 53.2722 36.1839 54.4038 35.3599 55.5024 34.8106C 56.601 34.2613 57.9633 33.7999 59.5893 33.4263C 61.2372 33.0308 62.9071 32.8331 64.599 32.8331C 69.1912 32.8331 72.4651 34.0196 74.4207 36.3926C 76.3762 38.7437 77.354 41.9736 77.354 46.0825L 77.354 66.5169C 77.354 67.5056 76.8596 68 75.8709 68L 72.9046 68C 72.0477 68 71.6192 67.5056 71.6192 66.5169L 71.6192 64.9019L 71.5533 64.9019C 69.8175 66.2642 68.1146 67.22 66.4447 67.7693C 64.7968 68.2966 62.9511 68.5603 60.9076 68.5603C 57.3042 68.5603 54.5246 67.7034 52.5691 65.9895C 50.6355 64.2537 49.6687 61.8477 49.6687 58.7716ZM 55.6672 58.9034C 55.6672 60.2657 55.9528 61.3643 56.5241 62.1993C 57.0954 63.0123 57.8864 63.5396 58.8972 63.7813C 59.9079 64.001 60.9626 64.1109 62.0612 64.1109C 63.7531 64.1109 65.3571 63.9461 66.8732 63.6165C 68.3893 63.2869 69.9493 62.419 71.5533 61.0128L 71.5533 51.29C 67.1148 51.6195 63.9508 52.026 62.0612 52.5094C 60.1716 52.9708 58.6335 53.7838 57.447 54.9484C 56.2605 56.0909 55.6672 57.4093 55.6672 58.9034ZM 88.2304 68C 87.2416 68 86.7472 67.5056 86.7472 66.5169L 86.7472 34.8765C 86.7472 33.8878 87.2416 33.3934 88.2304 33.3934L 90.9989 33.3934C 91.9877 33.3934 92.482 33.8878 92.482 34.8765L 92.482 38.8316L 92.6139 38.8316C 93.6686 36.8541 94.91 35.3599 96.3382 34.3492C 97.7664 33.3385 99.5462 32.8331 101.678 32.8331C 103.084 32.8331 104.073 32.9539 104.644 33.1956C 105.149 33.3934 105.336 33.723 105.204 34.1844L 104.446 36.887C 104.336 37.2825 104.051 37.4363 103.589 37.3484C 102.82 37.1946 102.095 37.1177 101.414 37.1177C 98.8431 37.1177 96.7227 38.2823 95.0528 40.6113C 93.3829 42.9184 92.548 46.0715 92.548 50.0705L 92.548 66.5169C 92.548 67.5056 92.0536 68 91.0648 68L 88.2304 68ZM 107.907 35.0084C 107.533 33.9317 107.83 33.3934 108.797 33.3934L 112.389 33.3934C 113.092 33.3934 113.587 33.8219 113.872 34.6788L 120.859 56.4315C 121.431 58.2113 121.815 59.4417 122.013 60.1229C 122.233 60.7821 122.43 61.606 122.606 62.5948L 122.738 62.5948C 122.914 61.606 123.101 60.7821 123.298 60.1229C 123.518 59.4417 123.914 58.2113 124.485 56.4315L 131.472 34.6788C 131.758 33.8219 132.252 33.3934 132.955 33.3934L 136.548 33.3934C 137.515 33.3934 137.811 33.9317 137.438 35.0084L 126.627 65.9895C 126.166 67.3298 125.573 68 124.847 68L 120.497 68C 119.772 68 119.179 67.3298 118.717 65.9895L 107.907 35.0084ZM 141.162 50.6967C 141.162 45.2475 142.524 40.908 145.249 37.678C 147.973 34.4481 151.874 32.8331 156.949 32.8331C 161.168 32.8331 164.662 34.3162 167.43 37.2825C 170.221 40.2268 171.616 44.9399 171.616 51.4218C 171.616 52.4105 171.165 52.9049 170.265 52.9049L 147.292 52.9049C 147.666 57.1456 148.808 60.1009 150.72 61.7708C 152.632 63.4187 154.796 64.2427 157.213 64.2427C 159.762 64.2427 161.717 63.8142 163.08 62.9573C 164.442 62.1004 165.442 61.2545 166.079 60.4195C 166.782 59.4967 167.463 59.3209 168.122 59.8922L 170.067 61.5731C 170.572 62.0125 170.572 62.6167 170.067 63.3858C 169.649 64.023 168.452 65.0447 166.474 66.4509C 164.519 67.8572 161.432 68.5603 157.213 68.5603C 151.72 68.5603 147.666 66.9453 145.051 63.7154C 142.458 60.4854 141.162 56.1459 141.162 50.6967ZM 147.16 48.6203L 165.782 48.6203C 165.694 45.5442 164.903 42.8525 163.409 40.5454C 161.915 38.2163 159.718 37.0518 156.817 37.0518C 154.269 37.0518 152.104 37.9087 150.325 39.6226C 148.545 41.3145 147.49 44.3137 147.16 48.6203ZM 177.878 64.77C 177.197 64.1328 177.054 63.5396 177.45 62.9903L 178.933 60.9139C 179.416 60.2547 180.13 60.2877 181.075 61.0128C 182.371 62.0015 183.811 62.7925 185.393 63.3858C 186.997 63.979 188.82 64.2757 190.864 64.2757C 192.072 64.2757 193.149 64.1328 194.094 63.8472C 195.038 63.5396 195.862 62.9793 196.566 62.1663C 197.291 61.3533 197.653 60.2657 197.653 58.9034C 197.653 58.1124 197.477 57.3653 197.126 56.6622C 196.796 55.9591 196.269 55.3988 195.544 54.9813C 194.841 54.5419 194.149 54.2013 193.467 53.9596C 192.347 53.5421 191.226 53.2016 190.106 52.9379C 189.007 52.6522 187.557 52.2238 185.755 51.6525C 184.547 51.279 183.404 50.7516 182.327 50.0705C 181.251 49.3674 180.306 48.4225 179.493 47.236C 178.702 46.0495 178.306 44.4126 178.306 42.3252C 178.306 40.1939 178.955 38.3592 180.251 36.8211C 181.547 35.283 183.173 34.2393 185.129 33.69C 187.084 33.1187 188.985 32.8331 190.831 32.8331C 193.555 32.8331 195.742 33.1517 197.39 33.7889C 199.059 34.4041 200.499 35.1402 201.707 35.9971C 202.41 36.5025 202.509 37.0848 202.004 37.7439L 200.521 39.7215C 200.059 40.3587 199.345 40.3367 198.378 39.6555C 197.565 39.0843 196.412 38.5459 194.918 38.0406C 193.423 37.5352 192.116 37.2825 190.996 37.2825C 189.611 37.2825 188.425 37.4363 187.436 37.7439C 186.447 38.0516 185.645 38.5789 185.03 39.326C 184.415 40.073 184.107 40.9519 184.107 41.9626C 184.107 42.7317 184.228 43.4238 184.47 44.039C 184.711 44.6323 185.162 45.1816 185.821 45.687C 186.48 46.1923 187.403 46.5988 188.59 46.9064C 190.435 47.3898 192.116 47.8293 193.632 48.2248C 195.17 48.6203 196.555 49.1037 197.785 49.675C 199.389 50.422 200.619 51.246 201.476 52.1469C 202.355 53.0477 202.96 54.0255 203.289 55.0802C 203.619 56.1129 203.783 57.2665 203.783 58.5409C 203.783 60.8919 203.08 62.8804 201.674 64.5064C 200.29 66.1323 198.741 67.22 197.027 67.7693C 195.313 68.2966 193.248 68.5603 190.831 68.5603C 187.557 68.5603 184.744 68.0989 182.393 67.176C 180.064 66.2312 178.559 65.4292 177.878 64.77ZM 208.661 37.7439C 207.673 37.7439 207.178 37.3594 207.178 36.5904L 207.178 34.5469C 207.178 33.7779 207.673 33.3934 208.661 33.3934L 212.551 33.3934L 212.551 30.4271C 212.551 29.9877 212.66 29.5702 212.88 29.1747L 215.187 24.9889C 215.605 24.2199 215.945 23.8354 216.209 23.8354L 217.362 23.8354C 218.022 23.8354 218.351 24.2199 218.351 24.9889L 218.351 33.3934L 225.371 33.3934C 226.36 33.3934 226.855 33.7779 226.855 34.5469L 226.855 36.5904C 226.855 37.3594 226.36 37.7439 225.371 37.7439L 218.351 37.7439L 218.351 58.7386C 218.351 61.0457 218.692 62.5508 219.373 63.254C 220.076 63.9351 220.911 64.2757 221.878 64.2757C 222.625 64.2757 223.515 64.0559 224.547 63.6165C 225.602 63.177 226.327 62.8035 226.723 62.4959C 227.118 62.1883 227.426 62.2872 227.646 62.7925L 228.733 65.3303C 228.909 65.7698 228.777 66.1214 228.338 66.385C 227.481 66.8904 226.228 67.3848 224.58 67.8682C 222.932 68.3296 221.285 68.5603 219.637 68.5603C 217.351 68.5603 215.594 67.7363 214.363 66.0884C 213.155 64.4405 212.551 62.1114 212.551 59.1012L 212.551 37.7439L 208.661 37.7439Z"/>
</defs>
</svg>
